<svg xmlns="http://www.w3.org/2000/svg" width="89.199" height="103.479" viewBox="0 0 89.199 103.479"><defs><linearGradient id="a" x1=".803" x2=".214" y1=".986" y2="-.105" gradientUnits="objectBoundingBox"><stop offset="0" stop-color="#1a237e" stop-opacity=".012"/><stop offset="1" stop-color="#1a237e" stop-opacity=".302"/></linearGradient></defs><g data-name="google arcore" transform="translate(-.9 -.8)"><path fill="#e1bee7" fill-rule="evenodd" d="M125.926,121.2a20.046,20.046,0,0,0-17.326,9.995l13.634,7.858a7.386,7.386,0,0,0,7.384,0l13.607-7.858A19.884,19.884,0,0,0,125.926,121.2Z" data-name="Path 222" transform="translate(-79.299 -88.65)"/><path fill="#fafafa" fill-rule="evenodd" d="M114.723,166.958,101.09,159.1a19.989,19.989,0,1,0,34.6,0l-13.607,7.858a7.337,7.337,0,0,1-7.357,0Z" data-name="Path 223" transform="translate(-71.789 -116.555)"/><path fill="#7b1fa2" fill-rule="evenodd" d="M216.572,249.325,191.626,234.9a19.959,19.959,0,0,1-17.326,9.995v31.724a6.8,6.8,0,0,0,3.4-.923l38.9-22.468a.026.026,0,0,0,.026-.026A2.23,2.23,0,0,0,216.572,249.325Z" data-name="Path 224" transform="translate(-127.673 -172.366)"/><path fill="#4a148c" fill-rule="evenodd" d="M49.2,244.895A19.959,19.959,0,0,1,31.878,234.9L4.4,250.775a6.772,6.772,0,0,0,2.479,2.479l38.9,22.468a6.8,6.8,0,0,0,3.4.923v-31.75Z" data-name="Path 225" transform="translate(-2.577 -172.366)"/><path fill="#7b1fa2" fill-rule="evenodd" d="M49.278,32.624V.9a6.8,6.8,0,0,0-3.4.923L6.979,24.291A6.772,6.772,0,0,0,4.5,26.77L31.978,42.645A19.917,19.917,0,0,1,49.278,32.624Z" data-name="Path 226" transform="translate(-2.651 -.074)"/><path fill="#4a148c" fill-rule="evenodd" d="M216.625,24.217a.026.026,0,0,1-.026-.026L177.7,1.723A6.8,6.8,0,0,0,174.3.8V32.524a19.959,19.959,0,0,1,17.326,9.995l24.947-14.4A2.253,2.253,0,0,0,216.625,24.217Z" data-name="Path 227" transform="translate(-127.673)"/><path fill="#ba68c8" fill-rule="evenodd" d="M26.638,124.77a19.991,19.991,0,0,1,2.663-9.995L1.823,98.9A6.923,6.923,0,0,0,.9,102.3v44.909a6.654,6.654,0,0,0,.923,3.4L29.3,134.738A19.819,19.819,0,0,1,26.638,124.77Z" data-name="Path 228" transform="translate(0 -72.23)"/><path fill="url(#a)" fill-rule="evenodd" d="M168.506,234.9a19.948,19.948,0,0,1-17.3,9.995A20.324,20.324,0,0,1,142.9,243.1L177,262.8l16.508-9.52a2.279,2.279,0,0,0,0-3.956Z" data-name="Path 229" transform="translate(-104.554 -172.366)"/></g></svg>