<svg xmlns="http://www.w3.org/2000/svg" xmlns:xlink="http://www.w3.org/1999/xlink" width="24" height="24" preserveAspectRatio="xMidYMid meet" viewBox="0 0 24 24" style="-ms-transform: rotate(360deg); -webkit-transform: rotate(360deg); transform: rotate(360deg);"><g fill="none"><path d="M2 10a2 2 0 0 1 2-2h16a2 2 0 0 1 2 2v7a2 2 0 0 1-2 2h-3.868a2 2 0 0 1-1.715-.971l-1.56-2.6a1 1 0 0 0-1.714 0l-1.56 2.6A2 2 0 0 1 7.868 19H4a2 2 0 0 1-2-2v-7z" stroke="#626262" stroke-width="2" stroke-linecap="round" stroke-linejoin="round"/><path d="M3.813 6.781A4 4 0 0 1 7.14 5h9.718a4 4 0 0 1 3.328 1.781L21 8H3l.813-1.219z" stroke="#626262" stroke-width="2" stroke-linecap="round" stroke-linejoin="round"/></g><rect x="0" y="0" width="24" height="24" fill="rgba(0, 0, 0, 0)" /></svg>